# xmcd
#
# Track frame offsets:
#	150
#	21166
#	41026
#	69751
#	91125
#	110342
#	128058
#	161979
#	182287
#	199839
#	220083
#	251851
#	274767
#	289529
#	311315
#
# Disc length: 4439 seconds
#
# Revision: 0
# Processed by: cddbd v1.5.2PL0 Copyright (c) Steve Scherf et al.
# Submitted via: EZCDAudioConverter 1.0.2.1
#
DISCID=cd11550f
DTITLE=Various Artist - 2012 Steppin' Music Vol. 26
DYEAR=2012
DGENRE=R&B
TTITLE0=Seal - Still In Love With You
TTITLE1=Carmichael - It's Time To Love Somebody
TTITLE2=Max Melvin - Whatever
TTITLE3=Dialtone - Boogaloo
TTITLE4=Pure feat. Chill Will - The Stars (Remix)
TTITLE5=Lina - Smooth
TTITLE6=Mysterious - Earth Song
TTITLE7=Moob Deep - Temperature's Rising (Remix)
TTITLE8=Anita Baker - Angel (DJ Chillnite Remix)
TTITLE9=R. Kelly - Whole Lotta Kisses
TTITLE10=Kenny Loggins - Now That I Know Love
TTITLE11=Merge Of Equal - Take You There (Intoxicating)
TTITLE12=Madlib - That The Way It's Gonna Be
TTITLE13=Lisa Shaw - I'm OK
TTITLE14=Chilly Gonzales - Never Stop
EXTD=
EXTT0=
EXTT1=
EXTT2=
EXTT3=
EXTT4=
EXTT5=
EXTT6=
EXTT7=
EXTT8=
EXTT9=
EXTT10=
EXTT11=
EXTT12=
EXTT13=
EXTT14=
PLAYORDER=
